<svg width="90" height="93" viewBox="0 0 90 93" fill="none" xmlns="http://www.w3.org/2000/svg">
<path d="M51.5309 39.4094C41.4994 30.8689 12.3195 36.328 2.87826 47.4175C-1.37391 52.412 -0.527456 58.2792 5.14834 63.1114C11.3181 68.3641 18.4478 68.2434 23.3959 72.4561C28.387 76.7054 29.4167 83.7727 35.5321 88.9792C41.2079 93.8114 47.135 93.7109 51.3872 88.7164C60.8284 77.6269 61.5624 47.9498 51.5309 39.4094ZM34.4621 21.7649C37.37 15.6876 36.0566 9.0304 31.53 6.8946C27.0034 4.7588 20.9774 7.95435 18.0695 14.0316C15.1616 20.1088 16.475 26.7661 21.0016 28.9019C25.5282 31.0377 31.5541 27.8421 34.4621 21.7649ZM47.6961 27.9027C52.5964 30.0653 59.6448 25.7482 63.4393 18.261C67.2339 10.7739 66.3363 2.95256 61.436 0.789895C56.5357 -1.37277 49.4874 2.94433 45.6928 10.4315C41.8983 17.9187 42.7959 25.7425 47.6961 27.9027ZM86.8176 53.9671C83.987 49.8392 77.2067 49.6058 71.67 53.445C66.1345 57.2852 63.9412 63.7438 66.7718 67.8716C69.6024 71.9995 76.3827 72.233 81.9194 68.3938C87.4549 64.5536 89.6482 58.095 86.8176 53.9671ZM63.502 41.3592C66.4187 45.8517 74.283 45.49 81.0689 40.5496C87.8549 35.6092 90.991 27.9638 88.0755 23.4699C85.1599 18.976 77.2944 19.3391 70.5085 24.2795C63.7226 29.2199 60.5852 36.8667 63.502 41.3592Z" fill="#F69E7B" fill-opacity="0.51"/>
</svg>
